<?xml version="1.0"?>
<svg xmlns="http://www.w3.org/2000/svg" height="512px" viewBox="0 -128 350.90199 350" width="512px"><g><path d="m350.902344 47.609375c0 26.046875-21.113282 47.160156-47.160156 47.160156-26.046876 0-47.160157-21.113281-47.160157-47.160156 0-26.042969 21.113281-47.160156 47.160157-47.160156 26.046874 0 47.160156 21.117187 47.160156 47.160156zm0 0" data-original="#000000" class="active-path" data-old_color="#000000" fill="#8E8E8E"/><path d="m222.609375 47.609375c0 26.046875-21.113281 47.160156-47.160156 47.160156-26.042969 0-47.160157-21.113281-47.160157-47.160156 0-26.042969 21.117188-47.160156 47.160157-47.160156 26.046875 0 47.160156 21.117187 47.160156 47.160156zm0 0" data-original="#000000" class="active-path" data-old_color="#000000" fill="#8E8E8E"/><path d="m94.320312 47.609375c0 26.046875-21.113281 47.160156-47.160156 47.160156s-47.160156-21.113281-47.160156-47.160156c0-26.042969 21.113281-47.160156 47.160156-47.160156s47.160156 21.117187 47.160156 47.160156zm0 0" data-original="#000000" class="active-path" data-old_color="#000000" fill="#8E8E8E"/></g> </svg>
